<?xml version="1.0" standalone="no"?>
<!DOCTYPE svg PUBLIC "-//W3C//DTD SVG 20010904//EN"
 "http://www.w3.org/TR/2001/REC-SVG-20010904/DTD/svg10.dtd">
<svg version="1.0" xmlns="http://www.w3.org/2000/svg"
 width="512.000000pt" height="512.000000pt" viewBox="0 0 512.000000 512.000000"
 preserveAspectRatio="xMidYMid meet">
<metadata>
Created by potrace 1.14, written by Peter Selinger 2001-2017
</metadata>
<g transform="translate(0.000000,512.000000) scale(0.100000,-0.100000)"
fill="#000000" stroke="none">
<path d="M2522 5113 c-34 -14 -39 -54 -40 -313 0 -140 4 -269 9 -286 19 -61
110 -68 136 -11 6 13 10 136 9 300 l-1 279 -24 19 c-22 18 -61 23 -89 12z"/>
<path d="M823 4405 c-34 -14 -55 -58 -43 -91 10 -27 386 -401 411 -409 53 -17
110 44 90 96 -11 31 -385 405 -410 412 -10 2 -32 -1 -48 -8z"/>
<path d="M4253 4412 c-28 -4 -411 -387 -419 -418 -15 -58 61 -113 110 -81 38
25 388 380 396 402 18 48 -34 106 -87 97z"/>
<path d="M2438 4285 c-2 -2 -25 -6 -53 -9 -324 -36 -651 -199 -880 -438 -102
-106 -116 -124 -180 -222 -63 -97 -115 -198 -115 -224 0 -11 9 -30 19 -43 19
-24 19 -25 -12 -122 -17 -53 -36 -96 -42 -95 -40 7 -67 -27 -79 -102 -27 -167
-28 -296 -2 -492 31 -228 174 -547 323 -717 34 -40 142 -157 184 -201 35 -36
98 -127 122 -175 44 -88 49 -126 53 -410 2 -148 6 -288 10 -310 12 -74 60
-159 124 -218 l60 -56 0 -66 c0 -157 82 -285 227 -353 l58 -27 320 0 320 0 65
31 c140 66 220 194 220 353 0 62 2 70 25 85 45 30 94 90 128 156 l32 65 6 330
c4 291 7 337 24 385 27 76 93 170 209 299 226 250 349 479 406 754 88 422 -1
855 -246 1198 -67 94 -231 265 -314 326 -210 156 -441 252 -695 288 -50 8
-311 15 -317 10z"/>
<path d="M107 2694 c-50 -27 -48 -102 3 -129 24 -12 76 -15 289 -15 172 0 268
4 285 11 57 26 55 117 -2 137 -15 5 -144 9 -287 10 -206 0 -266 -3 -288 -14z"/>
<path d="M4439 2698 c-59 -20 -59 -114 -1 -137 39 -14 543 -12 573 3 29 14 44
54 35 89 -12 51 -38 55 -321 55 -143 0 -272 -5 -286 -10z"/>
<path d="M1175 1346 c-42 -29 -388 -382 -396 -404 -19 -49 45 -111 96 -92 21
8 371 352 399 392 23 33 20 56 -13 89 -32 32 -56 36 -86 15z"/>
<path d="M3873 1348 c-26 -13 -47 -59 -38 -86 8 -26 390 -408 414 -415 34 -9
79 19 89 55 5 18 6 40 1 48 -7 14 -286 298 -366 373 -34 32 -68 40 -100 25z"/>
</g>
</svg>
